<?xml version="1.0" standalone="no"?>
<!DOCTYPE svg PUBLIC "-//W3C//DTD SVG 20010904//EN"
 "http://www.w3.org/TR/2001/REC-SVG-20010904/DTD/svg10.dtd">
<svg version="1.0" xmlns="http://www.w3.org/2000/svg"
 width="1280.000000pt" height="1280.000000pt" viewBox="0 0 1280.000000 1280.000000"
 preserveAspectRatio="xMidYMid meet">
<metadata>
Created by potrace 1.11, written by Peter Selinger 2001-2013
</metadata>
<g transform="translate(0.000000,1280.000000) scale(0.100000,-0.100000)"
fill="#000000" stroke="none">
<path d="M3996 12770 c-121 -26 -206 -57 -300 -108 -196 -108 -324 -238 -376
-382 -30 -86 -22 -206 20 -294 56 -117 109 -157 366 -269 56 -24 123 -59 150
-77 97 -66 183 -172 238 -293 25 -54 128 -326 191 -507 19 -52 52 -147 75
-210 75 -210 153 -441 149 -443 -2 -1 -31 -15 -64 -31 -33 -17 -114 -60 -179
-98 -66 -37 -123 -68 -128 -68 -4 0 -8 -5 -8 -10 0 -6 -8 -14 -17 -17 -30 -11
-280 -181 -319 -218 -6 -5 -22 -17 -34 -25 -12 -8 -28 -20 -34 -25 -6 -6 -38
-33 -71 -60 -33 -28 -77 -66 -99 -85 -21 -19 -43 -35 -49 -35 -11 0 -40 72
-53 130 -3 11 -7 70 -9 130 -2 61 -7 130 -10 155 -21 145 -136 257 -274 264
-60 3 -152 -16 -188 -40 -12 -8 -29 -14 -38 -14 -8 0 -15 -4 -15 -10 0 -5 -5
-10 -12 -10 -14 0 -144 -99 -173 -132 -156 -174 -224 -354 -186 -494 12 -45
64 -123 101 -152 61 -48 96 -55 340 -67 52 -2 108 -7 123 -10 34 -7 107 -38
107 -45 0 -3 -19 -26 -43 -51 -61 -67 -78 -88 -155 -186 -64 -83 -175 -235
-197 -271 -5 -9 -26 -41 -46 -72 -41 -63 -149 -247 -149 -253 0 -3 -11 -25
-25 -50 l-26 -45 -182 63 c-100 35 -202 71 -227 80 -25 9 -52 18 -60 20 -8 2
-33 10 -55 19 -22 8 -110 40 -195 70 -410 144 -499 188 -603 300 -51 55 -123
173 -157 261 -83 209 -179 317 -317 359 -189 58 -381 -35 -539 -259 -77 -108
-148 -271 -169 -384 -3 -14 -7 -37 -10 -51 -14 -64 -17 -202 -6 -264 29 -168
114 -276 264 -336 76 -30 178 -30 262 0 33 11 65 22 70 23 6 2 32 13 59 25 27
12 53 22 57 22 5 0 17 4 27 9 46 26 153 49 252 55 33 1 148 -15 190 -28 81
-25 206 -78 470 -203 41 -20 113 -54 160 -76 47 -22 155 -73 240 -114 85 -41
174 -84 198 -95 23 -11 42 -23 42 -27 0 -4 -14 -49 -31 -101 -28 -87 -103
-373 -113 -430 -2 -14 -11 -63 -20 -110 -8 -47 -18 -107 -21 -135 -4 -27 -8
-57 -10 -65 -3 -8 -7 -46 -10 -85 -3 -38 -8 -81 -10 -95 -3 -14 -5 -51 -6 -83
-2 -54 -3 -57 -23 -51 -41 12 -122 72 -211 158 -117 112 -173 141 -275 141
-159 -1 -263 -96 -323 -297 -29 -97 -30 -319 -3 -418 60 -217 191 -333 360
-317 76 7 136 43 244 146 80 76 208 168 219 157 4 -3 7 -39 18 -176 7 -88 13
-152 21 -200 3 -19 7 -51 9 -70 7 -65 42 -235 100 -480 2 -8 8 -28 15 -45 6
-16 11 -32 11 -35 0 -3 8 -35 19 -71 11 -36 20 -69 20 -73 0 -10 -743 -368
-1003 -483 -108 -48 -206 -70 -312 -72 -104 -2 -186 19 -380 93 -184 72 -288
74 -419 8 -62 -30 -136 -104 -163 -162 -39 -82 -47 -124 -49 -233 -1 -93 5
-141 31 -257 18 -82 82 -223 142 -313 99 -149 193 -234 317 -284 75 -31 129
-35 226 -16 139 27 233 112 300 272 17 42 55 123 83 181 69 140 161 235 292
301 50 25 106 52 125 58 19 7 44 17 55 22 11 5 90 34 175 64 85 31 178 65 205
75 73 27 201 72 355 125 74 25 144 50 155 55 11 5 36 13 56 18 l35 9 44 -86
c24 -47 67 -126 97 -175 29 -49 53 -90 53 -92 0 -18 228 -336 329 -459 93
-112 102 -124 135 -159 l29 -31 -59 -18 c-60 -18 -104 -23 -275 -31 -112 -6
-168 -26 -232 -85 -70 -64 -92 -118 -92 -221 0 -48 5 -98 12 -111 7 -13 19
-41 27 -62 41 -102 168 -248 280 -322 217 -142 417 -133 532 24 43 60 53 107
58 276 4 126 25 255 43 255 2 0 44 -33 91 -73 48 -40 121 -99 162 -130 41 -31
80 -61 86 -66 14 -11 172 -117 244 -163 103 -66 210 -127 327 -187 l42 -21
-15 -42 c-9 -24 -17 -47 -18 -53 -2 -5 -6 -17 -9 -25 -3 -8 -25 -69 -48 -135
-48 -139 -62 -178 -160 -455 -149 -423 -184 -496 -288 -601 -75 -74 -131 -112
-246 -164 -44 -19 -88 -40 -97 -45 -10 -6 -25 -10 -33 -10 -8 0 -15 -4 -15
-10 0 -5 -7 -10 -15 -10 -18 0 -111 -63 -143 -98 -63 -66 -103 -161 -107 -254
-8 -148 67 -282 228 -409 180 -142 390 -218 618 -224 176 -5 290 34 378 130
26 29 61 79 77 112 26 52 29 68 28 153 0 88 -3 103 -43 205 -94 238 -104 272
-105 390 -1 142 22 225 129 452 25 52 45 97 45 99 0 2 29 63 64 136 35 73 78
165 96 203 18 39 59 123 91 188 33 66 59 125 59 133 0 8 4 14 8 14 4 0 13 15
20 33 25 69 27 70 117 41 73 -24 168 -51 205 -59 8 -2 42 -10 75 -19 33 -8 76
-18 95 -21 19 -3 51 -10 70 -15 19 -5 71 -14 115 -20 44 -7 89 -14 100 -16 57
-11 230 -28 348 -35 59 -3 60 -13 10 -93 -42 -68 -46 -73 -144 -176 -66 -70
-114 -144 -125 -194 -3 -11 -5 -48 -5 -81 1 -172 156 -302 396 -333 199 -25
418 25 531 122 22 18 53 60 69 92 26 51 30 70 30 139 -1 102 -23 146 -141 270
-85 90 -170 213 -162 237 2 6 15 13 29 14 106 7 219 16 244 19 17 2 53 7 80
10 56 7 84 11 170 26 33 6 69 12 80 14 71 8 366 84 509 130 44 14 80 24 82 22
1 -1 43 -86 92 -187 368 -760 432 -902 448 -986 3 -21 9 -48 11 -59 14 -62 0
-229 -24 -295 -3 -8 -7 -20 -8 -26 -2 -6 -19 -51 -38 -100 -61 -157 -70 -187
-72 -269 -3 -64 2 -92 21 -143 53 -141 138 -216 290 -256 74 -20 239 -15 344
9 86 20 243 79 282 106 14 11 29 19 33 19 17 0 147 102 205 161 61 62 121 160
137 219 23 93 5 223 -42 305 -54 93 -111 134 -293 211 -290 123 -396 236 -502
534 -13 36 -27 69 -32 74 -4 6 -8 19 -8 31 0 12 -4 25 -9 31 -4 5 -21 45 -36
89 -15 44 -34 96 -41 115 -7 19 -37 105 -67 190 -30 85 -60 167 -66 183 -6 15
-8 27 -5 27 4 0 2 6 -3 13 -6 6 -20 44 -33 82 -12 39 -28 84 -36 102 -21 46
-19 50 39 79 164 83 469 277 612 391 17 13 35 27 40 31 6 4 37 30 70 57 33 28
71 59 84 70 14 11 41 35 62 53 35 30 38 32 47 15 29 -56 43 -127 47 -243 7
-193 30 -275 98 -341 70 -68 191 -99 287 -74 226 59 447 281 507 511 34 127
11 223 -74 307 -75 76 -115 87 -333 91 -99 2 -139 7 -192 25 -38 12 -68 25
-68 27 0 2 14 19 31 37 56 58 214 259 301 384 112 160 201 307 290 481 24 45
47 82 53 82 6 0 55 -16 110 -36 55 -20 114 -40 130 -44 17 -5 82 -27 145 -50
63 -23 120 -43 125 -44 6 -2 17 -6 25 -9 46 -18 469 -167 474 -167 6 0 24 -8
138 -59 116 -51 223 -141 291 -244 33 -50 49 -81 112 -224 51 -115 71 -147
125 -203 151 -156 373 -165 549 -22 66 54 116 109 167 184 143 214 218 521
173 714 -6 27 -12 54 -13 59 -6 34 -58 116 -98 157 -84 85 -207 131 -313 117
-74 -10 -94 -15 -191 -55 -231 -94 -332 -113 -483 -90 -108 16 -338 116 -961
418 -80 39 -178 86 -217 105 -40 19 -73 37 -73 41 0 4 4 21 9 37 66 216 118
436 137 575 3 25 8 47 9 50 2 3 6 35 10 70 3 36 8 72 10 80 2 8 7 49 10 90 13
150 15 173 19 177 6 6 108 -43 142 -69 17 -13 73 -62 123 -110 118 -111 178
-142 275 -143 127 0 225 69 288 205 60 130 78 323 44 480 -3 14 -8 34 -10 45
-16 76 -87 199 -138 238 -104 80 -248 89 -346 22 -18 -13 -65 -53 -104 -90
-89 -86 -145 -129 -200 -153 -83 -37 -78 -40 -80 41 0 40 -2 83 -3 97 -5 56
-16 157 -20 180 -2 14 -7 49 -10 79 -4 30 -9 63 -11 75 -2 11 -6 36 -9 56 -3
20 -8 47 -10 60 -3 14 -12 58 -20 98 -18 91 -75 310 -109 417 -15 44 -26 81
-26 83 0 1 37 20 83 41 45 21 172 82 282 136 110 54 227 110 260 125 33 15
127 60 208 99 82 39 150 71 152 71 2 0 32 13 67 29 135 63 221 81 353 76 108
-4 153 -15 309 -76 193 -77 282 -88 396 -49 196 66 285 216 275 465 -16 424
-326 839 -625 837 -189 -1 -310 -91 -394 -292 -11 -25 -32 -73 -48 -108 -15
-35 -28 -66 -28 -68 0 -13 -92 -143 -125 -177 -96 -98 -195 -147 -601 -292
-71 -26 -149 -54 -174 -63 -25 -9 -47 -16 -50 -15 -3 1 -9 -2 -15 -7 -5 -4
-26 -13 -45 -18 -19 -6 -114 -38 -210 -72 -305 -106 -294 -103 -303 -88 -4 7
-23 40 -43 73 -20 33 -36 62 -36 65 -1 19 -205 343 -219 348 -5 2 -9 8 -9 12
0 20 -245 332 -337 429 -30 32 -32 37 -17 48 24 17 141 52 194 57 25 2 88 6
140 7 158 5 241 43 309 144 80 119 60 270 -59 445 -91 133 -238 246 -385 296
-76 25 -180 23 -239 -6 -85 -41 -144 -105 -167 -182 -6 -18 -12 -89 -14 -158
-2 -69 -7 -147 -11 -175 -7 -55 -40 -151 -55 -160 -5 -3 -21 6 -36 20 -48 46
-254 209 -352 279 -124 88 -324 212 -447 277 -107 55 -117 64 -104 88 5 9 20
50 34 91 50 152 166 482 172 492 3 5 12 31 20 56 15 56 111 321 147 410 14 34
24 62 22 62 -2 0 12 30 31 67 76 148 186 255 337 327 126 59 164 76 170 76 18
0 132 76 165 110 74 76 125 210 116 306 -13 126 -94 255 -234 369 -53 43 -178
112 -285 156 -28 12 -162 46 -210 55 -60 10 -205 11 -250 3 -73 -15 -81 -17
-116 -32 -136 -59 -240 -208 -241 -347 -1 -82 9 -122 64 -260 60 -149 70 -180
85 -275 18 -109 -4 -252 -57 -369 -51 -115 -175 -386 -229 -499 -34 -71 -61
-131 -61 -134 0 -3 -9 -18 -21 -34 -11 -16 -18 -29 -15 -29 2 0 -20 -51 -50
-112 -31 -62 -74 -151 -97 -198 -22 -47 -42 -87 -43 -89 -2 -1 -51 12 -111 29
-137 41 -227 65 -278 74 -11 2 -38 9 -60 14 -22 6 -51 13 -65 16 -14 2 -54 10
-90 16 -36 7 -75 14 -87 15 -13 2 -40 6 -60 10 -47 7 -78 11 -178 21 -44 4
-88 9 -97 10 -10 1 -36 2 -59 3 -35 1 -40 4 -34 19 4 9 12 31 19 47 18 51 64
112 158 212 113 121 143 178 142 278 -1 131 -68 226 -202 287 -72 33 -74 33
-177 52 -69 13 -179 13 -262 2 -109 -15 -252 -81 -309 -144 -41 -44 -74 -125
-78 -188 -6 -102 23 -161 133 -277 38 -40 80 -85 93 -102 31 -37 90 -153 86
-167 -2 -6 -22 -12 -43 -13 -22 -2 -83 -6 -135 -9 -52 -4 -106 -8 -120 -10
-14 -3 -52 -7 -85 -11 -33 -3 -123 -17 -200 -30 -159 -28 -159 -28 -240 -48
-33 -9 -71 -18 -85 -21 -33 -6 -164 -44 -219 -62 -24 -8 -45 -13 -47 -12 -3 4
-219 446 -289 593 -183 384 -196 412 -232 500 -24 62 -39 113 -49 175 -9 55
-10 181 -2 187 5 2 6 8 4 12 -7 10 27 123 72 241 60 158 70 197 67 280 -3 100
-44 198 -115 271 -40 42 -139 95 -193 103 -7 1 -16 4 -22 7 -27 14 -215 7
-299 -11z"/>
</g>
</svg>
